#define bullet_width 4
#define bullet_height 7
static unsigned char bullet_bits[] = {
   0x01, 0x03, 0x06, 0x0c, 0x06, 0x03, 0x01 };
